<svg width="100%" height="100%" viewBox="0 0 300 70" xmlns="http://www.w3.org/2000/svg" xmlns:xlink="http://www.w3.org/1999/xlink" xml:space="preserve" style="fill-rule:evenodd;clip-rule:evenodd;stroke-linejoin:round;stroke-miterlimit:1.41421;">

	<defs>

		<mask id="mask-element">

			<path fill="#777" d="M283,18.75c0,-0.69 -0.56,-1.25 -1.25,-1.25l-183.5,0c-0.69,0 -1.25,0.56 -1.25,1.25l0,2.5c0,0.69 0.56,1.25 1.25,1.25l183.5,0c0.69,0 1.25,-0.56 1.25,-1.25l0,-2.5Z"/>

			<path fill="#777" d="M283,28.75c0,-0.69 -0.56,-1.25 -1.25,-1.25l-183.5,0c-0.69,0 -1.25,0.56 -1.25,1.25l0,2.5c0,0.69 0.56,1.25 1.25,1.25l183.5,0c0.69,0 1.25,-0.56 1.25,-1.25l0,-2.5Z"/>

			<path fill="#777" d="M254,38.75c0,-0.69 -0.56,-1.25 -1.25,-1.25l-154.5,0c-0.69,0 -1.25,0.56 -1.25,1.25l0,2.5c0,0.69 0.56,1.25 1.25,1.25l154.5,0c0.69,0 1.25,-0.56 1.25,-1.25l0,-2.5Z"/>

			<path fill="#777" d="M281.75,48.75c0,-0.69 -0.56,-1.25 -1.25,-1.25l-182.25,0c-0.69,0 -1.25,0.56 -1.25,1.25l0,2.5c0,0.69 0.56,1.25 1.25,1.25l182.25,0c0.69,0 1.25,-0.56 1.25,-1.25l0,-2.5Z"/>

			<path id="qube" fill="#777" d="M92,20.87c0,-1.86 -1.51,-3.37 -3.37,-3.37l-28.26,0c-1.86,0 -3.37,1.51 -3.37,3.37l0,28.26c0,1.86 1.51,3.37 3.37,3.37l28.26,0c1.86,0 3.37,-1.51 3.37,-3.37l0,-28.26Z"/>

			<path fill="hsla(200,0%,10%,.6)" id="mask" d="M52,17.5l0,35l-40,0l20,-35l20,0Z"/>

		</mask>

	</defs>


	<path mask="url(#mask-element)" d="M283,18.75c0,-0.69 -0.56,-1.25 -1.25,-1.25l-183.5,0c-0.69,0 -1.25,0.56 -1.25,1.25l0,2.5c0,0.69 0.56,1.25 1.25,1.25l183.5,0c0.69,0 1.25,-0.56 1.25,-1.25l0,-2.5Z" fill="#dadada"/>

	<path mask="url(#mask-element)" d="M283,28.75c0,-0.69 -0.56,-1.25 -1.25,-1.25l-183.5,0c-0.69,0 -1.25,0.56 -1.25,1.25l0,2.5c0,0.69 0.56,1.25 1.25,1.25l183.5,0c0.69,0 1.25,-0.56 1.25,-1.25l0,-2.5Z" fill="#dadada"/>

	<path mask="url(#mask-element)" d="M254,38.75c0,-0.69 -0.56,-1.25 -1.25,-1.25l-154.5,0c-0.69,0 -1.25,0.56 -1.25,1.25l0,2.5c0,0.69 0.56,1.25 1.25,1.25l154.5,0c0.69,0 1.25,-0.56 1.25,-1.25l0,-2.5Z" fill="#dadada"/>

	<path mask="url(#mask-element)" d="M281.75,48.75c0,-0.69 -0.56,-1.25 -1.25,-1.25l-182.25,0c-0.69,0 -1.25,0.56 -1.25,1.25l0,2.5c0,0.69 0.56,1.25 1.25,1.25l182.25,0c0.69,0 1.25,-0.56 1.25,-1.25l0,-2.5Z" fill="#dadada"/>

	<path mask="url(#mask-element)" id="qube" d="M92,20.87c0,-1.86 -1.51,-3.37 -3.37,-3.37l-28.26,0c-1.86,0 -3.37,1.51 -3.37,3.37l0,28.26c0,1.86 1.51,3.37 3.37,3.37l28.26,0c1.86,0 3.37,-1.51 3.37,-3.37l0,-28.26Z" fill="#dadada"/>

</svg>
